<?xml version="1.0" encoding="UTF-8"?>
<svg id="_レイヤー_2" data-name="レイヤー 2" xmlns="http://www.w3.org/2000/svg" viewBox="0 0 319.37 174.76">
  <defs>
    <style>
      .cls-1 {
        stroke-width: 3px;
      }

      .cls-1, .cls-2, .cls-3, .cls-4, .cls-5, .cls-6, .cls-7, .cls-8, .cls-9, .cls-10 {
        stroke-miterlimit: 10;
      }

      .cls-1, .cls-4, .cls-8 {
        stroke: #326291;
      }

      .cls-1, .cls-10 {
        fill: none;
      }

      .cls-11, .cls-6 {
        fill: #040000;
      }

      .cls-2 {
        fill: #fefdf3;
      }

      .cls-2, .cls-3, .cls-4, .cls-5, .cls-10 {
        stroke-width: 2px;
      }

      .cls-2, .cls-3, .cls-5, .cls-6, .cls-10 {
        stroke: #040000;
      }

      .cls-3, .cls-7 {
        fill: #fff;
      }

      .cls-4, .cls-8 {
        fill: #326291;
      }

      .cls-5 {
        fill: #c8c897;
      }

      .cls-7 {
        stroke: #fff;
      }

      .cls-9 {
        fill: #95c6c6;
        stroke: #95c6c6;
      }
    </style>
  </defs>
  <g id="_レイヤー_6" data-name="レイヤー 6">
    <g>
      <path class="cls-5" d="m262.18,86.26s38.91-35.71,52.64-33.42c0,0-8.7,7.78-6.41,11.44,0,0-16.02,8.24-17.4,10.99l21.97-12.36s-14.65,11.65-12.36,16.81c0,0-7.33.8-11.04,3.55l8.91-2.38s-1.04,2.76-1.53,3.08-10.72,7.47-10.89,9.1,6.5,4.55,7.96,5.85,5.04,5.2,6.01,5.52l-15.6-2.6,13.81,3.74s-1.14,8.45,10.89,14.46l-23.24-9.42,18.2,9.42s-3.47,4.06,10.69,12.51c0,0-12.32-1.46-24.34-8.29s-24.92-16.9-28.3-19.66,0-18.35,0-18.35Z"/>
      <path class="cls-5" d="m143.34,44.91s14.97-14.58,28.01-21.11c0,0-3.84,7.68,3.45,5.76l-10.47,9.96,10.47-12.31s-.97,6.67,0,7.15,7.5-.61,7.5-.61l-9.59,7.41,5.23-5.88,5.77,5.23-3.92,4.9,4.1-4.73,6.36,5.23-4.25,4.29,4.36-4.19s41.26,27.21,46.46,28.74-93.51-29.83-93.51-29.83Z"/>
      <path class="cls-5" d="m81.09,47.09S96.4,14.26,115.04,4.8c0,0-2.78,8.07,0,9.18s3.9-6.68,3.9-6.68l-10.3,23.93,9.44-21.02s-3.39,19.02,4.1,12.95l-6.91,11.95,5.94-14.34s.58,16.73,3.62,7.04l-4.57,14.98,4.17-12.68s2.73,10.34,7.11,6.7l-3.72,6.45,3.72-4.88s2.73,4.14,4.96,4.63,4.05.58,4.05.58l-59.47,3.49Z"/>
      <path class="cls-5" d="m157.72,136.39s1.99,6.81,18.43,19.57c0,0-4.25-7.66-1.7-7.94s6.24.85,6.24.85l-10.21-15.03,9.75,12.97,5.49-3.8-6.23-10.13,6.72,9.74,4.81-3.84-5.68-7.79,5.99,7.51,5.43-4.05-3.25-5.05,3.6,4.74,4.29-3.39-2.28-3.74,2.6,3.56s11.06-7.91,19.56-12.41c8.5-4.5-63.56,18.23-63.56,18.23Z"/>
      <path class="cls-5" d="m130.09,138.94s-2.63,3.64-3.03,4.44l-6.67-3.64,6.41,4.04s-1.72,3.36-1.77,4.41l-12.99-4.2,12.82,4.62s-.76,4.83-.92,6.39l-12.4-5.51s12.36,6.09,12.36,6.26.08,6.18.08,6.85l-11.81-8.07,11.73,8.49s.71,6.52,1.81,8.24c0,0-38.62-25.89-37.79-33.38l42.17,1.04Z"/>
      <path class="cls-2" d="m30.58,106.51S3.56,98.44,1.11,90.72s37.19-31.98,75.43-41.43c38.24-9.45,83.65-6.29,113.31,4.59,29.66,10.87,64.92,32.98,77.55,33.68s11.91,4.81,16.39,3.92l-10.03,1.16h8.8l-4.4,1.32,3.44.14s1.79,2.61,3.16,2.61-6.74-1.51-6.74-1.51c0,0,6.5,3.02,6.89,3.02s-7.44-1.65-7.44-1.65l-3.16.69,8.8,1.37-6.32.14s4.4.41,3.99.96-5.09,2.2-6.32,2.34-12.78-.27-16.22,1.24-26.25,10.03-32.03,13.61-61.54,21.39-87.1,22.88-63.3-4.07-76.67-7.24-46.67-18.64-53.49-25.13-8.04-9.64-4.37-12.06"/>
      <path class="cls-9" d="m251.02,106.18s-42.96-9.39-69.74-15.46c-26.78-6.07-70.78-11.8-78.05-11.8s-56.39-4.71-100.07,14.77c0,0-1.8-1.8-2.05-2.97l14.43-8.77,24.19-12.07,23.8-8.67,53.32-9.08,39.11,1.28,50.99,15.37,43.42,14.32,14.59,4.68s7.75-.36,11.35,1.32,4.05,2.74,7.49,2.38l-10.03,1.16h8.8l-4.4,1.32,3.44.14s1.66,2.57,3.16,2.61-6.74-1.51-6.74-1.51c0,0,6.41,3.06,6.89,3.02s-7.44-1.65-7.44-1.65l-3.16.69,8.8,1.37-6.32.14s3.9.42,3.99.96-6.32,2.34-6.32,2.34c0,0-12.44-.29-16.22,1.24s-7.2,2.88-7.2,2.88Z"/>
      <path class="cls-4" d="m274.54,89.27s-27.79-3.92-37.49-7.74c-9.7-3.81-30.55-7.51-48.04-12.89s-46.76-9.29-57.48-10.51c-10.72-1.22-39.23-.97-57.99,3.65-18.76,4.63-47.27,16.57-53.36,19.25s-14.99,9.87-19.07,9.69c0,0-1.35-2.87,7.09-9.85s27.15-16.6,32.87-19.09,23.79-10.02,35.48-12.48c11.69-2.46,29.88-5.65,43.61-5.54,13.74.11,31.19.17,51.62,4.89s38.05,13.52,46.3,17.56,29.67,14.78,37.97,18.13,18.49,4.94,18.49,4.94Z"/>
      <path class="cls-8" d="m79.39,76.01s2.83-2.91,16.12-5.17c13.29-2.26,37.61-3.6,62.21,2.58s54.58,14.1,69.85,16.08,31.39,5.66,37.04,4.81c0,0-30.82.57-60.52-6.22s-48.64-11.33-57.97-13.3-49.78-7.47-66.74,1.22Z"/>
      <line class="cls-1" x1="259.24" y1="90.73" x2="259.24" y2="96.86"/>
      <line class="cls-1" x1="253.02" y1="90.73" x2="252.18" y2="98.15"/>
      <line class="cls-1" x1="242.87" y1="88.11" x2="242.87" y2="96.86"/>
      <line class="cls-1" x1="232.33" y1="86.69" x2="230.97" y2="96.2"/>
      <line class="cls-1" x1="221.98" y1="84.62" x2="219.4" y2="94.44"/>
      <line class="cls-1" x1="211.07" y1="82.34" x2="209.48" y2="91.87"/>
      <line class="cls-1" x1="202.16" y1="80.75" x2="200.36" y2="90.73"/>
      <line class="cls-1" x1="191.91" y1="78.24" x2="189.99" y2="88.14"/>
      <line class="cls-1" x1="182.9" y1="75.7" x2="180.92" y2="85.8"/>
      <line class="cls-1" x1="172" y1="73.58" x2="170.23" y2="83.64"/>
      <line class="cls-1" x1="161.61" y1="70.65" x2="158.88" y2="81.7"/>
      <line class="cls-1" x1="150.37" y1="68.95" x2="149.18" y2="79.16"/>
      <line class="cls-1" x1="140.56" y1="67.24" x2="138.65" y2="76.75"/>
      <line class="cls-1" x1="130.09" y1="67.24" x2="130.09" y2="75.7"/>
      <line class="cls-1" x1="120.54" y1="66.53" x2="120.54" y2="74.06"/>
      <line class="cls-1" x1="110.83" y1="66.72" x2="110.83" y2="74.06"/>
      <line class="cls-1" x1="102.18" y1="67.24" x2="102.18" y2="74.79"/>
      <line class="cls-1" x1="92.63" y1="68.95" x2="92.63" y2="74.79"/>
      <line class="cls-1" x1="84.3" y1="71.47" x2="85.77" y2="75.7"/>
      <path class="cls-10" d="m30.58,106.09S3.56,98.02,1.11,90.3c-2.46-7.72,37.19-31.98,75.43-41.43,38.24-9.45,83.65-6.29,113.31,4.59,29.66,10.87,64.92,32.98,77.55,33.68,12.63.7,11.91,4.81,16.39,3.92l-10.03,1.16h8.8l-4.4,1.32,3.44.14s1.79,2.61,3.16,2.61-6.74-1.51-6.74-1.51c0,0,6.5,3.02,6.89,3.02s-7.44-1.65-7.44-1.65l-3.16.69,8.8,1.37-6.32.14s4.4.41,3.99.96-5.09,2.2-6.32,2.34-12.78-.27-16.22,1.24-26.25,10.03-32.03,13.61-61.54,21.39-87.1,22.88c-25.56,1.49-63.3-4.07-76.67-7.24s-46.67-18.64-53.49-25.13-8.04-9.64-4.37-12.06"/>
      <circle class="cls-3" cx="38.65" cy="78.17" r="16.27"/>
      <circle class="cls-6" cx="37.34" cy="78.17" r="8.73"/>
      <circle class="cls-7" cx="40" cy="76.75" r="4.2"/>
      <path class="cls-5" d="m145.67,107.04s-19.7-4.07-34.09-3.65c-14.39.42-36.07,4.48-40.87,6.15l-2.61,8.03s8.76,6.04,19.18,5.73,16.68-1.15,28.36-7.3,30.02-8.97,30.02-8.97Z"/>
      <path class="cls-11" d="m59.72,130.41s16.99-24.43,6.45-50.69c0,0,5.83,4.38,5.83,18.43s-2.82,25.6-12.28,32.26Z"/>
      <path class="cls-11" d="m80.51,112.77s14.6-5.32,32.21-1.25c0,0-29.71,2.19-32.21,1.25Z"/>
      <path class="cls-11" d="m77.59,115.69s3.23,1.98,13.97.63,16.99-2.19,18.35-1.88c0,0-23.4,9.15-32.32,1.25Z"/>
    </g>
  </g>
</svg>