<?xml version="1.0" encoding="UTF-8"?>
<svg id="_レイヤー_2" data-name="レイヤー 2" xmlns="http://www.w3.org/2000/svg" viewBox="0 0 302.02 188.22">
  <defs>
    <style>
      .cls-1 {
        fill: #91a1a8;
      }

      .cls-1, .cls-2, .cls-3, .cls-4, .cls-5, .cls-6, .cls-7, .cls-8, .cls-9 {
        stroke-miterlimit: 10;
      }

      .cls-1, .cls-2, .cls-3, .cls-4, .cls-5, .cls-6, .cls-7, .cls-9 {
        stroke-width: 2px;
      }

      .cls-1, .cls-2, .cls-3, .cls-4, .cls-6, .cls-7, .cls-8, .cls-9 {
        stroke: #040000;
      }

      .cls-2 {
        fill: #040000;
      }

      .cls-3, .cls-8 {
        fill: #fff;
      }

      .cls-4 {
        fill: #90a4ab;
      }

      .cls-5 {
        fill: #bed1da;
        stroke: #231815;
      }

      .cls-6 {
        fill: #576265;
      }

      .cls-7 {
        fill: #517381;
      }

      .cls-9 {
        fill: none;
      }
    </style>
  </defs>
  <g id="_レイヤー_5" data-name="レイヤー 5">
    <g>
      <path class="cls-4" d="m103.79,36.01S118.23,6.83,134.38,1.44c0,0-1.08,9.42,0,11.31s47.11,25.58,49.53,29.61-3.11,5.46-3.11,5.46"/>
      <path class="cls-6" d="m183.44,49s23.62-10.95,34.66-8.52c0,0-11.16,21.58-12.72,20.55"/>
      <path class="cls-6" d="m255.61,95.21s29.56-38.24,41.97-36.56c0,0-18.79,33.59-18.45,46.82s4.7,42.41,18.45,53.48c0,0-30.27-8.53-41.97-38.31"/>
      <path class="cls-5" d="m1.66,88.61s41.08-38.15,94.49-51.06c53.41-12.91,105.05,19.95,112.09,25.53,7.04,5.58,46.36,34.33,59.86,37.85,13.5,3.52,3.52,15.26,0,15.26s-35.8,13.5-55.17,28.17c-19.37,14.67-80.4,27.58-128.53,18.19C36.29,153.17,11.64,128.52,1.66,116.19l22.89-8.22L1.66,88.61Z"/>
      <path class="cls-6" d="m193.21,154.11s-3.3,13.89-1.63,20.27c0,0-13.79-4.54-20.15-14.18"/>
      <path class="cls-6" d="m121.8,165.75s-6.71,15.67-3.02,20.37-22.14-6.18-30.19-21.87"/>
      <path class="cls-1" d="m272.42,113.32c-35.05-2.4-41.28,24.38-123.6,32.37S10.46,125.81,10.46,125.81c0,0,32.24,36.28,98.93,39.94,66.69,3.66,103.55-21.38,103.55-21.38,0,0,30.18-19.29,42.67-23.73,12.49-4.44,10.78-3.84,12.49-4.44s4.31-2.87,4.31-2.87Z"/>
      <path class="cls-9" d="m69.38,158.94s29.61-21.47,21.22-64.07"/>
      <path class="cls-4" d="m102.43,102.59s25.68-27.01,52.65-14.76c0,0-32.39,30.82-37.81,32.2"/>
      <path class="cls-9" d="m128.76,24.64s-5.92,7.11-5.12,9.93"/>
      <path class="cls-9" d="m148.81,29.6s-4.92,6.93-3.39,7.22"/>
      <path class="cls-7" d="m273.35,105.46s-12.36-.62-35.86-7.42-47.39-19.16-56.46-21.02-42.08-11.64-60.38-10.02-50.07,6.19-56.27,8.08-35.27,11.09-39.84,11.06-14.93,2.03-18.23-1.55c0,0,43.14-36.87,89.84-47.03s91.2,8.55,124.78,34.93c33.59,26.38,50.95,28.09,53.46,32.51s-1.04.47-1.04.47Z"/>
      <path class="cls-9" d="m118.79,124.06c-4.36-14.76-18.79-21.47-18.79-21.47"/>
      <circle class="cls-3" cx="50.02" cy="84.64" r="14.01"/>
      <circle class="cls-2" cx="50.02" cy="84.64" r="7.29"/>
      <circle class="cls-8" cx="47.83" cy="81.36" r="3.45"/>
    </g>
  </g>
</svg>