<?xml version="1.0" encoding="UTF-8"?>
<svg id="_レイヤー_2" data-name="レイヤー 2" xmlns="http://www.w3.org/2000/svg" viewBox="0 0 170.38 192.51">
  <defs>
    <style>
      .cls-1 {
        fill: none;
      }

      .cls-1, .cls-2 {
        stroke: #040000;
        stroke-miterlimit: 10;
        stroke-width: 3px;
      }

      .cls-3 {
        fill: #fff;
      }

      .cls-4 {
        fill: #cdc227;
      }

      .cls-5 {
        fill: #b0a61f;
      }

      .cls-2 {
        fill: #eee234;
      }
    </style>
  </defs>
  <g id="_レイヤー_10" data-name="レイヤー 10">
    <g>
      <path class="cls-2" d="m104.37,182.35s-31.34,10.48-61.1,8.39-36.74-7.69-39.89-19.57-4.54-33.96,14.33-42.84,45.12-11.44,47.37-20.64-5.04-78.19-2.09-87.03,2.91-16.48,41.37-18.25c38.46-1.77,62.22,5.32,64.32,12.61s-11.34,154.83-14.41,164.23-38,16.39-49.89,3.11Z"/>
      <path class="cls-4" d="m168.66,15.01s-6.14,8.25-32.7,9.89-44.92,1.31-56.39-3.28c-11.48-4.59-13.75-8.27-13.75-8.27,0,0,3.86-6.88,16.15-8.58s39.7-3.8,53.36-1.76,28.99,4.06,33.33,11.99Z"/>
      <path class="cls-5" d="m156.37,165.7s-34.21,11.82-71.17,13.53-52.54.47-62.19-1.71c-9.65-2.18-20.06-11.82-20.06-11.82,0,0,.65,8.94,3.12,12.16,2.47,3.22,6.53,9.36,25.47,11.7s33,1.11,40.22,0,25.4-4.43,32.61-7.22c0,0,6.41,7.69,21.31,7.35,14.91-.34,25.91-5.6,27.8-8.95"/>
      <path class="cls-3" d="m71.51,18.33s4.65,81.44,3.63,89.32-6.86,9.66-15.25,12.2-31.77,7.88-40.16,16.52c-8.39,8.64-10.68,16.01-11.44,27.2s6.26,21.53,6.26,21.53c0,0-6.83-3.54-8.5-7.24s-5.82-13.43-3.83-28.98c1.99-15.56,15.63-21.3,24.29-24.15,8.66-2.85,38.11-9.65,38.55-17.05s-1.66-60.7-2.09-72.72.63-17.52,2.84-21.6c0,0,1.84,3.26,5.69,4.97Z"/>
      <ellipse class="cls-3" cx="32.43" cy="146.55" rx="8.9" ry="7.63"/>
      <path class="cls-1" d="m104.37,181.71s-31.34,10.48-61.1,8.39c-29.76-2.1-36.74-7.69-39.89-19.57-3.15-11.88-4.54-33.96,14.33-42.84,18.87-8.88,45.12-11.44,47.37-20.64s-5.04-78.19-2.09-87.03c2.95-8.83,2.91-16.48,41.37-18.25s62.22,5.32,64.32,12.61-11.34,154.83-14.41,164.23-38,16.39-49.89,3.11Z"/>
      <path class="cls-1" d="m167.69,35.89s-10.21,6.3-42.41,8.47-62.23-6.66-62.94-9.53"/>
      <path class="cls-1" d="m168.66,15.01s-7.45,9-32.7,9.89-41.24,2.05-56.39-3.28c-15.15-5.32-13.75-8.27-13.75-8.27"/>
    </g>
  </g>
</svg>