<?xml version="1.0" encoding="UTF-8"?>
<svg id="_レイヤー_2" data-name="レイヤー 2" xmlns="http://www.w3.org/2000/svg" viewBox="0 0 313.99 185.67">
  <defs>
    <style>
      .cls-1 {
        stroke-width: 3px;
      }

      .cls-1, .cls-2, .cls-3, .cls-4, .cls-5, .cls-6 {
        stroke: #040000;
        stroke-miterlimit: 10;
      }

      .cls-1, .cls-6 {
        fill: none;
      }

      .cls-2 {
        fill: #ee96bd;
      }

      .cls-2, .cls-3, .cls-4, .cls-5, .cls-6 {
        stroke-width: 2px;
      }

      .cls-3 {
        fill: #040000;
      }

      .cls-4 {
        fill: #fff;
      }

      .cls-5 {
        fill: #f8c9c9;
      }
    </style>
  </defs>
  <g id="_レイヤー_3" data-name="レイヤー 3">
    <g>
      <path class="cls-2" d="m185.11,8.08s32.23-15.38,56.92,2.53c24.68,17.92,8.16,45.55,8.16,45.55"/>
      <path class="cls-2" d="m138.51,162.18s-22.3,17.78,0,22.03c22.3,4.24,19.12-22.25,19.12-22.25"/>
      <path class="cls-2" d="m172.32,160.84s-7.54,13.8,11.18,17.39c18.71,3.58,21.1-24.69,21.1-24.69"/>
      <path class="cls-2" d="m267.32,92.21s31.24-16.45,42.79-5.54c11.55,10.91-14.33,61.47-28.86,60.68-14.54-.8-26.32-26.4-26.32-26.4"/>
      <path class="cls-5" d="m12.87,101.92c5.51,40.77,76.98,56.88,76.98,56.88,9.79.65,70.46,9.13,108.96-3.26,38.49-12.4,56.11-34.58,56.11-34.58,0,0,15.39-12.62,12.4-28.74-5.53-29.75-38.49-73.69-82.21-84.13-43.71-10.44-62.64-12.11-120.7,14.35S1.12,102.69,1.12,102.69c0,0,47.88-7.15,56.3,9.97"/>
      <line class="cls-6" x1="214.12" y1="20.67" x2="225.7" y2="14.99"/>
      <line class="cls-6" x1="231.07" y1="33.93" x2="238.45" y2="29.05"/>
      <line class="cls-6" x1="275.47" y1="103.78" x2="292.19" y2="106.17"/>
      <line class="cls-6" x1="273.48" y1="116.52" x2="289.01" y2="123.29"/>
      <line class="cls-6" x1="187.71" y1="158.44" x2="185.11" y2="168.28"/>
      <line class="cls-6" x1="146.87" y1="162.23" x2="143.19" y2="170.67"/>
      <path class="cls-2" d="m181.46,87.06s19.88-12.78,32.66,5.15c12.78,17.94-20.75,38.49-38.43,21.45"/>
      <path class="cls-6" d="m148.47,1.94s40.21,27.75,31.85,90.27c-8.36,62.53-48.18,70.02-48.18,70.02"/>
      <line class="cls-6" x1="215.72" y1="106.17" x2="249.99" y2="110.95"/>
      <path class="cls-1" d="m102.68,20.67s-11.15,3.48-15.53,2.68"/>
      <path class="cls-1" d="m146.87,53.61s4.41,7.96,8.57,10.75"/>
      <circle class="cls-3" cx="72.33" cy="61.92" r="28.99"/>
      <circle class="cls-4" cx="82.52" cy="52.01" r="10.19"/>
      <circle class="cls-4" cx="61.03" cy="71.94" r="6.33"/>
      <circle class="cls-3" cx="128.6" cy="96.59" r="28.99"/>
      <circle class="cls-4" cx="138.79" cy="86.67" r="10.19"/>
      <circle class="cls-4" cx="117.3" cy="106.6" r="6.33"/>
    </g>
  </g>
</svg>