<?xml version="1.0" encoding="UTF-8"?>
<svg id="_レイヤー_2" data-name="レイヤー 2" xmlns="http://www.w3.org/2000/svg" viewBox="0 0 358.44 146.84">
  <defs>
    <style>
      .cls-1 {
        fill: #040000;
      }

      .cls-1, .cls-2, .cls-3, .cls-4, .cls-5, .cls-6, .cls-7, .cls-8 {
        stroke-miterlimit: 10;
      }

      .cls-1, .cls-2, .cls-3, .cls-4, .cls-5, .cls-7 {
        stroke: #040000;
      }

      .cls-1, .cls-2, .cls-3, .cls-4, .cls-5, .cls-7, .cls-8 {
        stroke-width: 2px;
      }

      .cls-2, .cls-6 {
        fill: #fff;
      }

      .cls-3 {
        fill: #7f97ab;
      }

      .cls-4 {
        fill: #dee6ed;
      }

      .cls-5 {
        fill: #aeb7be;
      }

      .cls-6 {
        stroke: #fff;
      }

      .cls-7, .cls-8 {
        fill: none;
      }

      .cls-8 {
        stroke: #4e697f;
      }
    </style>
  </defs>
  <g id="_レイヤー_8" data-name="レイヤー 8">
    <g>
      <path class="cls-3" d="m154.54,25.9S180.15.24,189.67,1.02s46.84,25.27,47.81,27.6-8.79,9.1-8.79,9.1l-45.5,6.99-28.66-18.81Z"/>
      <path class="cls-3" d="m263.55,49.08s10.33-9.22,20.61-7.41,6.35,8.77,4.84,8.77-7.56,1.31-7.86,5.34l-14.81,9.17-2.78-15.87Z"/>
      <path class="cls-3" d="m295.95,58.22s38.39-38.31,56.22-30.75c17.84,7.56-15.72,24.18-11.49,48.37s19.65,39.3,10.88,46.25c-8.77,6.95-50.48-16.6-55.62-35.21v-28.66Z"/>
      <path class="cls-3" d="m273.05,95.85s8.69,5.69,8.69,9.01-28.42,14.89-32.04,14.85-13.77-10.46-13.77-10.46l17.1-17.69,20.03,4.29Z"/>
      <path class="cls-3" d="m201.94,116.63s9.37,2.51,12.7,6.7,3.63,20.38,0,22.33-25.99-13.24-29.32-27.18c-3.33-13.93,16.62-1.86,16.62-1.86Z"/>
      <path class="cls-8" d="m342.21,37.67s-18.66,3.31-39.89,22.91"/>
      <path class="cls-8" d="m339.38,51.45s-28.93,8.24-32.65,14.25"/>
      <path class="cls-8" d="m308.08,70.55c.02-.8,28.14-2.99,28.14-2.99"/>
      <path class="cls-8" d="m337.06,81.01s-25.72-1.08-29.55-3.94"/>
      <path class="cls-8" d="m339.38,97.45s-30-9.7-34.07-14.56"/>
      <path class="cls-8" d="m342.94,111.95s-38.07-12.67-41.48-25.95"/>
      <path class="cls-8" d="m274,104.37s-6.43-4.6-7.04-5.87"/>
      <path class="cls-8" d="m266.96,108.29s-5.89-5.02-6.74-6.85"/>
      <path class="cls-8" d="m260.23,111.77s-7.51-5.64-6.71-8.17"/>
      <path class="cls-8" d="m253.45,113.88s-5.28-3.58-5.9-8.25"/>
      <path class="cls-8" d="m211.25,128.81s-10.77-5.86-12.61-5.47"/>
      <path class="cls-8" d="m208.78,136.03s-15.38-9.71-15.38-12.7"/>
      <path class="cls-8" d="m187.56,11.76s-19.92,9.69-21.15,15.4"/>
      <path class="cls-8" d="m181.66,28.82c.25-4.78,16.98-14.6,16.98-14.6"/>
      <path class="cls-8" d="m208.78,19.46s-12.56,8.16-12.74,11.46"/>
      <path class="cls-8" d="m217.25,25.19s-6.92,4.24-8.46,8.02"/>
      <path class="cls-8" d="m226.32,29.2s-5.08,3.76-7,6.23"/>
      <path class="cls-4" d="m45.62,92.04s-8.32-4.54-15.36-9.65c-3.17-2.3-6.08-4.72-7.86-6.89-5.72-7-10.18-10.81-17.17-4.45s-6.04-12.72,8.27-16.54,30.53-3.18,48.97-10.18,48.65-18.76,79.82-18.44c31.16.32,70.59,6.68,96.35,14.63,25.76,7.95,48.97,18.44,52.15,18.44s7-3.18,13.67,3.5c6.68,6.68,2.54,18.76,0,21.62s-7.63,2.86-13.36,2.86-5.09,5.41-39.11,17.17c-34.03,11.77-60.42,15.58-100.8,15.58s-73.46-9.54-75.68-9.54-45.47-6.68-57.87-18.13c-12.4-11.45-9.54-10.49-6.36-11.77s4.77,3.5,12.08,4.13,7.59-.97,7.59-.97"/>
      <path class="cls-5" d="m307.51,70.55s-2.77.88-10.02,2.94-30.52,8.3-37.03,10.28-30.65,9.24-58.05,11.41c-27.4,2.17-48.48,2.17-73.82-1.27s-51.76-11.11-62.44-21.12-29.01-11.78-29.01-11.78l125.29-15.25,140.89,16.11s3.61.84,4.67,8.46l-.48.2Z"/>
      <path class="cls-3" d="m13.63,68.06s32.71-13.18,49.73-7.48,26.96.88,47.91-2.79c20.96-3.67,95.75,2.87,126.28,7.16s69.64-.02,65.47-3.82c0,0-2.22-2.08-4.98-2.71s-6.53.64-7.25.54c0,0-3.76-.6-16.12-5.67,0,0-15.86-6.06-22.26-8.23-6.4-2.18-24.39-7.95-36.06-10.3-11.67-2.35-35.63-6.86-52.39-7.82-16.76-.95-32.08-1.51-43.12.47-11.04,1.98-30.72,6.12-43.98,11.56-13.26,5.44-26.64,9.48-34.63,10.72s-24.52,3.02-30.65,5.45-10.11,8.9-10.5,12.91,1,4.85,3.05,3.83,4.67-5.11,9.49-3.83Z"/>
      <path class="cls-3" d="m90.52,88.76s16.53-14.24,30.28-16.64c13.75-2.4,19.57-2.05,18.16,2.36s-15.27,24.86-24.12,25.21-27.35-3.79-27.35-3.79c0,0,1.85-3.9,2.3-6.53l.73-.62Z"/>
      <path class="cls-7" d="m87.13,64.95s11.11,25.92-6.88,39.5"/>
      <path class="cls-8" d="m119.58,81.01s-13.53,3.65-16.61,6.42"/>
      <path class="cls-8" d="m116.2,91.56s-9.54.18-13.23,1.1"/>
      <path class="cls-7" d="m16.84,61.9s2.46-1.85,3.69,0"/>
      <circle class="cls-2" cx="43.14" cy="64.95" r="7.16"/>
      <circle class="cls-1" cx="43.14" cy="64.95" r="3.1"/>
      <circle class="cls-6" cx="43.14" cy="64.79" r="1.08"/>
    </g>
  </g>
</svg>