<?xml version="1.0" encoding="UTF-8"?>
<svg id="_レイヤー_2" data-name="レイヤー 2" xmlns="http://www.w3.org/2000/svg" viewBox="0 0 196.64 197.16">
  <defs>
    <style>
      .cls-1 {
        stroke: #359339;
        stroke-width: 6px;
      }

      .cls-1, .cls-2, .cls-3, .cls-4, .cls-5, .cls-6 {
        stroke-miterlimit: 10;
      }

      .cls-1, .cls-7, .cls-5 {
        stroke-linecap: round;
      }

      .cls-1, .cls-5, .cls-6, .cls-8 {
        fill: none;
      }

      .cls-9 {
        fill: #040000;
      }

      .cls-10, .cls-2 {
        fill: #fff;
      }

      .cls-11, .cls-3 {
        fill: #359339;
      }

      .cls-2, .cls-7, .cls-3, .cls-4, .cls-5, .cls-6, .cls-8 {
        stroke-width: 2px;
      }

      .cls-2, .cls-3, .cls-4, .cls-5, .cls-6, .cls-8 {
        stroke: #040000;
      }

      .cls-7 {
        fill: #cbe4c1;
        stroke: #cbe4c1;
      }

      .cls-7, .cls-8 {
        stroke-linejoin: round;
      }

      .cls-4 {
        fill: #a1d08d;
      }
    </style>
  </defs>
  <g id="_レイヤー_7" data-name="レイヤー 7">
    <g>
      <path class="cls-4" d="m161.97,161.27c-4.51,11.56-24.19,23.1-24.19,23.1-20,10.6-47.02,13.24-69.23,11.1s-41.87-10.68-55.52-28.62C-.63,148.92-1.33,127.99,4.35,116.88c5.68-11.1,26.37-22.04,40.96-12.31,14.59,9.73,14.07,25.19,8.69,33.18s-20.85,6.95-23.11.87-1.39-11.47,1.22-13.2,3.82,0,4.34-1.56-.52-3.47-4.69-3.65-8.86,1.91-10.25,8.51.69,15.64,3.82,20.15,7.99,11.81,16.68,17.2,26.06,7.99,35.96,6.78,19.11-5.04,20.33-7.47c0,0-11.64-5.04-16.16-17.72s-5.21-20.33-1.22-34.22c4-13.9,21.02-21.19,27.1-22.93s18.3-9.63,19.14-13.76c0,0-10.99.85-17.29,0s-17.52-7.43-18.32-12.47-34.97-2.65-42.65,0-5.55,6.04-8.11,6.05-7.26-3.03-8.11-13.9,2.56-14.43,3.84-14.35,3.84,5.16,5.13,4.97,39.29,3.19,44.42,0,2.56-18.56,17.94-30.09,24.34-10.25,35.88-8.54c11.53,1.71,14.54,2.48,23.93-1.11s19.21-7.86,23.06-5.73-7.26,12.39-11.1,15.38-1.67,9.4,3.01,9.82,10.23,3.63,6.82,8.01c-3.42,4.38-3.96,6.02,2.08,9.47s-.8,7.95-3.36,8.69-1.71,4.65.43,7.61,1.32,8.21-5.96,7.29c-7.28-.92-11.98,7.1-12.4,9.28s-1.36,8.14,5.51,21.6c6.87,13.47,2.17,31.4,2.17,31.4"/>
      <path class="cls-7" d="m98.73,165.1s11.29-2.44,13.98-30.34c2.7-27.9,4.85-33.16,10.92-40.44s10.28-11.98,4.14-17.71c0,0-5.71,9.13-19.74,13.89-14.03,4.76-25.02,13.81-27.1,22.93s-2.21,9.32-2.59,14.17.84,11.55,3.41,18.94,6.54,11.6,8.59,13.36,7.06,5.74,8.39,5.19Z"/>
      <path class="cls-3" d="m174.04,130.09l.42-.03s20.73-3.57,21.16,2.36c.44,5.93-8.56,37.97-13.61,39.95-5.05,1.98-14.42-3.16-19.94-10.91l-.11-.19"/>
      <path class="cls-11" d="m54,137.76s-7.56-1.73-7.56-6.62,7.69-3.44,10.67-1.32"/>
      <path class="cls-11" d="m55.92,117.32s-6.73,3.49-9.48,1.93-2.99-6,4.74-9.63"/>
      <path class="cls-11" d="m39.72,101.9s-1.1,9.55-4.61,8.96-4.27-1.82-4.48-9.98"/>
      <path class="cls-11" d="m17.49,104.71s5.12,7.84,1.61,9.92-7.06-1.85-8.89-4.96"/>
      <path class="cls-11" d="m2.44,121.8s11.19,2.58,9.05,7.24-10.49,1.34-10.49,1.34"/>
      <path class="cls-11" d="m1.91,142.25s11.92-2.31,11.72,1.79-2.37,4.3-8.99,7.81"/>
      <path class="cls-11" d="m9.38,161.5s8.87-6.54,10.96-3.22-.94,6.34-5.48,10.88"/>
      <path class="cls-11" d="m22.34,176.89s5.94-8.95,9.84-7.73.2,9.61-2.73,13.22"/>
      <path class="cls-11" d="m39.72,188.1s4.95-13.43,8.27-11.28,2.73,8.15,0,14.49"/>
      <path class="cls-11" d="m61.3,194.53s.93-14,5.42-13.41,3.92,9.9,3.52,14.51"/>
      <path class="cls-11" d="m82.33,196.09s-.78-15.4,3.32-14.99,4.86,7.95,4.87,14.71"/>
      <path class="cls-11" d="m104.52,194.29s-5.32-15.52,0-15.32,6.95,11.31,8.38,13.75"/>
      <path class="cls-1" d="m119.28,97.28c-4.41-.63-9.16-1.61-12.44-4.86"/>
      <path class="cls-1" d="m114.49,109.39c-8.03-1.25-16.75-2.65-22.88-8.47"/>
      <path class="cls-1" d="m112.15,123.53c-10.35-1.25-21.8-3.24-29.23-11.27"/>
      <path class="cls-1" d="m110.7,138.47c-10.98-.84-22.37-3.79-30.79-11.23"/>
      <path class="cls-1" d="m107.44,151.82c-9.02-.19-18.22-2.76-25.31-8.51"/>
      <line class="cls-6" x1="185.76" y1="138.58" x2="171.67" y2="138.58"/>
      <line class="cls-6" x1="183.03" y1="150.93" x2="168.92" y2="146.72"/>
      <line class="cls-6" x1="177.78" y1="162.17" x2="165.93" y2="153.76"/>
      <path class="cls-3" d="m141.99,45.07s28.22-10.68,29.68-.91-1.8,21.54-5.6,22.99-25.35-6.34-25.35-6.34"/>
      <line class="cls-5" x1="162.09" y1="48.87" x2="142.21" y2="49.81"/>
      <line class="cls-5" x1="160.58" y1="57.48" x2="141.93" y2="54.58"/>
      <ellipse class="cls-2" cx="121.01" cy="46.77" rx="10.18" ry="11.53"/>
      <ellipse class="cls-9" cx="122.35" cy="46.34" rx="7.28" ry="8.24"/>
      <path class="cls-8" d="m161.97,161.27c-4.51,11.56-24.19,23.1-24.19,23.1-20,10.6-47.02,13.24-69.23,11.1-22.21-2.14-41.87-10.68-55.52-28.62C-.63,148.92-1.33,127.99,4.35,116.88c5.68-11.1,26.37-22.04,40.96-12.31,14.59,9.73,14.07,25.19,8.69,33.18s-20.85,6.95-23.11.87-1.39-11.47,1.22-13.2,3.82,0,4.34-1.56-.52-3.47-4.69-3.65-8.86,1.91-10.25,8.51.69,15.64,3.82,20.15,7.99,11.81,16.68,17.2c8.69,5.39,26.06,7.99,35.96,6.78s19.11-5.04,20.33-7.47c0,0-11.64-5.04-16.16-17.72-4.52-12.68-5.21-20.33-1.22-34.22,4-13.9,21.02-21.19,27.1-22.93s18.3-9.63,19.14-13.76c0,0-10.99.85-17.29,0s-17.52-7.43-18.32-12.47-34.97-2.65-42.65,0-5.55,6.04-8.11,6.05-7.26-3.03-8.11-13.9,2.56-14.43,3.84-14.35,3.84,5.16,5.13,4.97,39.29,3.19,44.42,0,2.56-18.56,17.94-30.09c15.38-11.53,24.34-10.25,35.88-8.54,11.53,1.71,14.54,2.48,23.93-1.11s19.21-7.86,23.06-5.73-7.26,12.39-11.1,15.38-1.67,9.4,3.01,9.82,10.23,3.63,6.82,8.01c-3.42,4.38-3.96,6.02,2.08,9.47s-.8,7.95-3.36,8.69-1.71,4.65.43,7.61,1.32,8.21-5.96,7.29c-7.28-.92-11.98,7.1-12.4,9.28s-1.36,8.14,5.51,21.6c6.87,13.47,2.17,31.4,2.17,31.4"/>
      <ellipse class="cls-10" cx="120.33" cy="42.26" rx="2.5" ry="2.91"/>
    </g>
  </g>
</svg>