<?xml version="1.0" encoding="UTF-8"?>
<svg id="_レイヤー_2" data-name="レイヤー 2" xmlns="http://www.w3.org/2000/svg" viewBox="0 0 245.35 456.57">
  <defs>
    <style>
      .cls-1 {
        fill: #fff;
      }

      .cls-2 {
        fill: #8abcd3;
      }

      .cls-3 {
        fill: #c6d2d6;
      }

      .cls-4 {
        stroke-linecap: round;
        stroke-linejoin: round;
        stroke-width: 4px;
      }

      .cls-4, .cls-5 {
        fill: #6893a5;
        stroke: #6893a5;
      }

      .cls-5, .cls-6, .cls-7 {
        stroke-miterlimit: 10;
      }

      .cls-6 {
        fill: #8c9ea5;
        stroke: #8c9ea5;
      }

      .cls-7 {
        fill: #4f727f;
        stroke: #4f727f;
      }
    </style>
  </defs>
  <g id="_レイヤー_2-2" data-name="レイヤー 2">
    <g>
      <path class="cls-3" d="m27.2,4.63c49.61,30.98,80.66,84.74,113.01,143.93,32.35,59.19,59.92,167.7,59.92,167.7l-3.1.65s-27.08-107.74-58.85-166.52S75.27,39.27,27.2,7.47c0,0-14.68,31.26-19.67,61.2s-6.98,52.88,0,95.29,10.44,53.05,14.75,82.61,4.31,58.7.12,81.73-16.12,41.89-17.97,47.44,1.39,7.87,2.93,8.17,4.63.46,5.86-3.24-.38-5.06-.35-5.82.82-1.41,1.68-.99,2.1,2.24,2.2,4.21-.3,4.34-2.07,6.44-6.31,3.95-10.16,1.84-5.36-6.48-3.98-11.11,10.85-19.01,15.47-32.43,11.3-47.38,3.63-93.17-10.94-60-14.59-80.21S-2.23,112.75,1.7,87.21s5.53-30.59,7.42-37.7,7.74-23.86,9.64-28.91S26.07,3.95,26.07,3.95c0,0,.86.5,1.14.68Z"/>
      <path class="cls-5" d="m219.72,372.78S173.93,106.74,30.3,3.94l1.54-3.23s56.78,34.28,108.39,127.61,71.39,162.59,87.67,244.46h-8.18Z"/>
      <line class="cls-4" x1="198.41" y1="277.16" x2="185.1" y2="281.96"/>
      <line class="cls-4" x1="171.37" y1="207.4" x2="162.19" y2="211.73"/>
      <line class="cls-4" x1="145.08" y1="144.84" x2="134.36" y2="150.75"/>
      <line class="cls-4" x1="105.88" y1="82.77" x2="98.78" y2="87.22"/>
      <line class="cls-4" x1="61.96" y1="27.93" x2="56.04" y2="34.2"/>
      <line class="cls-4" x1="33.55" y1="4.63" x2="28.1" y2="10.4"/>
      <rect class="cls-2" x="224.18" y="366.03" width="13.43" height="90.29" rx="1.41" ry="1.41" transform="translate(-69.85 47.95) rotate(-10.31)"/>
      <path class="cls-2" d="m202.74,300.07l7.81-1.64s.81-.37,1.16.81,3.39,11.42,3.39,11.42c0,0,.39.81-.52,1.11s-8.24,2.18-8.24,2.18c0,0-1.02.33-1.32-.58s-3.15-12.23-3.15-12.23c0,0-.38-.81.87-1.07Z"/>
      <circle class="cls-3" cx="12.75" cy="354.66" r="4.52"/>
      <circle class="cls-1" cx="12.75" cy="354.66" r="1.88"/>
      <circle class="cls-7" cx="192.25" cy="326.59" r="13.52"/>
      <rect class="cls-6" x="187.72" y="324.39" width="4.77" height="23.73" rx="1.5" ry="1.5" transform="translate(85.43 -35.57) rotate(13.76)"/>
      <rect class="cls-7" x="177.61" y="345.68" width="16.38" height="3.78" rx="1.89" ry="1.89" transform="translate(104.02 -37.97) rotate(16.15)"/>
      <path class="cls-7" d="m202.49,320.66l14.51-1.31s.61-.32.88.65,1.22,4.64,1.22,4.64c0,0,.2.61-.34.75s-16.95,1.2-16.95,1.2l.67-5.93Z"/>
    </g>
  </g>
</svg>